{"title":"Shipping.News.[2001].DvdRip.XviD-KnÃƒÂ£","uid":6636110,"size":1566068736,"categoryP":"video","categoryS":"movies","magnet":"?xt=urn:btih:473046bd2a5d1ce6ed431921a0a6d000bb64c84b&amp;dn=Shipping.News.%5B2001%5D.DvdRip.XviD-Kn%C3%83%C2%A3&amp;tr=udp%3A%2F%2Ftracker.openbittorrent.com%3A80&amp;tr=udp%3A%2F%2Fopen.demonii.com%3A1337&amp;tr=udp%3A%2F%2Ftracker.coppersurfer.tk%3A6969&amp;tr=udp%3A%2F%2Fexodus.desync.com%3A6969","seeders":0,"leechers":1,"uploader":"Jon.Pson","files":1,"time":1314563968,"description":"An emotionally-beaten man with his young daughter moves to his ancestral home in Newfoundland to reclaim his life.\n\n\n\nGeneral\nComplete name                    : Z:\\\\\\\\Movies\\\\\\\\Shipping.News.[2001].DvdRip.XviD-KnÃƒÂ£\\\\\\\\Shipping.News.[2001].DvdRip.XviD-KnÃƒÂ£.avi\nFormat                           : AVI\nFormat/Info                      : Audio Video Interleave\nFile size                        : 1.46 GiB\nDuration                         : 1h 46mn\nOverall bit rate                 : 1 952 Kbps\nWriting application              : VirtualDubMod 1.5.4.1 (build 2178/release)\nWriting library                  : VirtualDubMod build 2178/release\n\nVideo\nID                               : 0\nFormat                           : MPEG-4 Visual\nFormat profile                   : Advanced Simple@L5\nFormat settings, BVOP            : No\nFormat settings, QPel            : No\nFormat settings, GMC             : No warppoints\nFormat settings, Matrix          : Custom\nCodec ID                         : XVID\nCodec ID/Hint                    : XviD\nDuration                         : 1h 46mn\nBit rate                         : 1 753 Kbps\nWidth                            : 720 pixels\nHeight                           : 304 pixels\nDisplay aspect ratio             : 2.35:1\nFrame rate                       : 25.000 fps\nColor space                      : YUV\nChroma subsampling               : 4:2:0\nBit depth                        : 8 bits\nScan type                        : Progressive\nCompression mode                 : Lossy\nBits/(Pixel*Frame)               : 0.320\nStream size                      : 1.31 GiB (90%)\nWriting library                  : XviD 1.2.1 (UTC 2008-12-04)\n\nAudio\nID                               : 1\nFormat                           : AC-3\nFormat/Info                      : Audio Coding 3\nMode extension                   : CM (complete main)\nCodec ID                         : 2000\nDuration                         : 1h 46mn\nBit rate mode                    : Constant\nBit rate                         : 192 Kbps\nChannel(s)                       : 2 channels\nChannel positions                : Front: L R\nSampling rate                    : 48.0 KHz\nBit depth                        : 16 bits\nCompression mode                 : Lossy\nStream size                      : 147 MiB (10%)\nAlignment                        : Split accross interleaves\nInterleave, duration             : 96 ms (2.40 video frames)\nInterleave, preload duration     : 96 ms\nLanguage                         : English\n\n","torrent":{"xt":"urn:btih:473046bd2a5d1ce6ed431921a0a6d000bb64c84b","amp;dn":"Shipping.News.%5B2001%5D.DvdRip.XviD-Kn%C3%83%C2%A3","amp;tr":["udp%3A%2F%2Ftracker.openbittorrent.com%3A80","udp%3A%2F%2Fopen.demonii.com%3A1337","udp%3A%2F%2Ftracker.coppersurfer.tk%3A6969","udp%3A%2F%2Fexodus.desync.com%3A6969"],"infoHash":"473046bd2a5d1ce6ed431921a0a6d000bb64c84b","infoHashBuffer":{"type":"Buffer","data":[71,48,70,189,42,93,28,230,237,67,25,33,160,166,208,0,187,100,200,75]},"announce":[],"urlList":[]}}